<svg xmlns="http://www.w3.org/2000/svg" viewBox="0 0 32 32" width="32" height="32">
  <rect width="32" height="32" rx="6" fill="#0a0708"/>
  <g transform="translate(16 16) scale(0.058) translate(-160 -185)">
    <path fill="#2cab3f" d="m 154.50854,158.8389 c -0.13903,-1.60859 -0.13486,-2.87542 0.004,-4.96143 0.47897,-7.18223 2.3483,-12.68726 5.95013,-17.52269 1.38154,-1.85471 1.918,-2.43539 3.98549,-4.31405 1.39729,-1.26966 1.48569,-1.33832 3.25763,-2.52977 1.38983,-0.93451 3.76523,-2.2343 4.94405,-2.70532 0.26841,-0.10725 0.81742,-0.33414 1.22003,-0.50421 4.0577,-1.71409 11.56754,-3.10963 16.79147,-3.12033 1.25333,-0.003 1.53347,0.15192 1.53347,0.15192 0,0 0.48499,8.4481 -0.10227,11.47639 -0.50654,2.61208 -0.75627,3.60879 -1.33843,5.34198 -0.72655,2.16305 -1.81376,4.54748 -2.79333,6.12624 -0.36084,0.58155 -0.70078,1.09396 -0.75543,1.13869 -0.0546,0.0447 -0.34521,0.44734 -0.64568,0.89468 -1.03519,1.5412 -4.32967,5.37753 -8.28221,7.72873 -3.24962,1.93305 -4.38669,2.45184 -7.90502,3.60666 -3.67475,1.20616 -7.01735,1.87905 -11.30555,2.08199 -2.39317,0.11325 -4.01913,0.0639 -4.01913,0.0639 0,0 -0.38944,-1.22042 -0.53922,-2.95337 z"/>
    <path fill="#e10f1c" d="m 137.26943,244.11716 c -6.32179,-4.27449 -10.32816,-7.06527 -10.32816,-7.06527 -1.62292,0.90185 -3.06205,0.44171 -3.92668,-0.55842 -0.77681,-0.89855 -0.71733,-2.97839 0.0135,-3.56332 0,0 -4.9221,-9.61306 -7.14974,-13.76938 l -0.68076,-0.004 c -0.90327,-0.005 -1.4829,-0.23986 -2.13801,-0.86751 -2.3352,-2.63967 0.65823,-4.83368 0.65823,-4.83368 0,0 -0.25883,-1.9428 -0.52391,-3.4742 -0.26509,-1.53139 -0.55186,-3.18696 -0.63727,-3.67904 -0.0854,-0.49208 -0.26959,-1.5169 -0.40928,-2.27738 -0.13968,-0.76048 -0.43817,-2.40751 -0.6633,-3.66007 -0.54346,-3.02371 -0.93915,-4.88435 -0.93915,-4.88435 0,0 -0.38779,-0.15027 -0.8194,-0.31028 -2.64259,-0.97968 -2.3534,-4.88497 0.41885,-5.65618 l 0.77117,-0.13831 0.51839,-1.30584 c 0.4208,-1.06 4.59431,-12.92759 4.59431,-12.92759 0,0 -0.82502,-1.21838 -0.78547,-1.90369 0.0547,-0.94753 0.55524,-2.02288 1.38164,-2.48965 0.907,-0.51229 2.12037,-0.48946 3.12302,0.11205 l 11.34668,-6.99795 c 0,0 0.21327,-1.38477 0.65713,-1.87724 0.57096,-0.6335 1.46195,-1.06198 2.31429,-1.09085 0.77961,-0.0264 1.63454,0.29407 2.17947,0.85223 0.4512,0.46216 0.63667,1.49398 0.66218,1.82102 0,0 0.31138,0.12872 0.64689,0.19021 0.3355,0.0615 1.48842,0.36907 2.56204,0.68353 2.06351,0.60439 4.13946,1.19767 8.13349,2.32445 1.34203,0.37861 2.8271,0.82791 3.30017,0.99845 0.75863,0.27348 1.61018,0.39761 1.61018,0.39761 0,0 0.60046,-1.38891 2.43445,-1.38891 1.9604,0 2.48527,1.38787 2.48527,1.38787 l 16.90905,-4.83394 c 0,0 0.59346,-1.24144 1.14359,-1.59592 0.73802,-0.47555 1.73719,-0.74564 2.58359,-0.51234 0.7423,0.20461 1.34562,0.87153 1.71562,1.54679 0.26245,0.47898 0.26978,1.61616 0.26978,1.61616 0,0 6.24889,3.81133 9.32361,5.64183 L 190.8,170.5156 c 0,0 0.30543,-0.26881 0.48536,-0.35884 0.53185,-0.26612 1.11521,-0.54521 1.70901,-0.51229 0.86476,0.0479 1.8486,0.34147 2.39113,1.01657 0.60454,0.75226 0.72869,1.90078 0.53283,2.84577 -0.13074,0.63083 -1.08142,1.60184 -1.08142,1.60184 l 0.35527,0.75322 c 0.19539,0.41426 1.06914,2.40024 1.94165,4.41328 2.01968,4.65978 2.72351,5.6898 2.72351,5.6898 0,0 1.44253,0.59452 1.8407,1.21186 0.46541,0.7216 0.65372,1.72302 0.40305,2.54429 -0.21799,0.7142 -1.52631,1.63973 -1.52631,1.63973 l -2.00264,18.64995 c 0,0 0.89753,0.45173 1.19074,0.83866 0.4192,0.5532 0.76002,1.2723 0.69392,1.96323 -0.0913,0.95463 -0.66147,1.94405 -1.4557,2.4815 -0.57013,0.38581 -2.04215,0.30773 -2.04215,0.30773 l -4.37112,8.58245 -4.13726,8.25503 c 1.16215,1.46958 1.03709,2.26639 0.65201,3.16599 -0.38578,0.90124 -1.34915,1.6079 -2.30469,1.82701 -0.77571,0.17788 -2.33024,-0.51981 -2.33024,-0.51981 -2.28297,1.42424 -10.24728,7.17651 -10.24728,7.17651 0,0 0.0725,1.31929 -0.20519,1.88828 -0.36686,0.75175 -0.99742,1.51233 -1.7998,1.74875 -0.91812,0.27051 -2.02249,-0.0285 -2.81536,-0.56466 -0.57327,-0.38766 -1.06477,-1.71444 -1.13699,-1.73711 -1.44033,-0.45223 -10.17616,-2.60447 -10.17616,-2.60447 -0.70855,0.92536 -1.44959,1.26366 -2.33659,1.27363 -1.07143,0.012 -2.14171,-0.4502 -2.85632,-1.47459 l -1.35793,0.39632 c -2.74789,0.87011 -5.55049,1.54001 -8.35768,2.1852 0,0 -0.5133,1.44046 -1.07785,1.90061 -0.60156,0.49033 -1.44751,0.83004 -2.21524,0.71652 -0.90091,-0.13321 -1.75515,-0.78936 -2.24495,-1.55713 -0.38995,-0.61125 -0.41908,-1.22818 -0.37088,-2.14327 z"/>
  </g>
</svg>
